File Name

Kick-Ass 2010 BRRip H264.mp4

File Size
Format : MPEG-4
Format profile : Base Media
Codec ID : isom
File size : 2.20 GiB
Duration : 1h 57mn
Overall bit rate : 2 678 Kbps

Video
ID : 1
Format : AVC
Format/Info : Advanced Video Codec
Format profile : High@L4.1
Format settings, CABAC : Yes
Format settings, ReFrames : 3 frames
Codec ID : avc1
Codec ID/Info : Advanced Video Coding
Duration : 1h 57mn
Bit rate mode : Variable
Bit rate : 2 099 Kbps
Maximum bit rate : 9 490 Kbps
Width : 1 280 pixels
Height : 536 pixels
Display aspect ratio : 2.35:1
Frame rate mode : Constant
Frame rate : 23.976 fps
Resolution : 24 bits
Colorimetry : 4:2:0
Scan type : Progressive
Bits/(Pixel*Frame) : 0.128
Stream size : 1.72 GiB (78%)

Audio #1
ID : 2
Format : AAC
Format/Info : Advanced Audio Codec
Format version : Version 4
Format profile : LC
Format settings, SBR : No
Codec ID : 40
Duration : 1h 57mn
Bit rate mode : Variable
Bit rate : 128 Kbps
Maximum bit rate : 136 Kbps
Channel(s) : 2 channels
Channel positions : L R
Sampling rate : 48.0 KHz
Resolution : 16 bits
Stream size : 108 MiB (5%)

Audio #2
ID : 3
Format : AAC
Format/Info : Advanced Audio Codec
Format version : Version 4
Format profile : LC
Format settings, SBR : No
Codec ID : 40
Duration : 1h 57mn
Bit rate mode : Variable
Bit rate : 448 Kbps
Maximum bit rate : 464 Kbps
Channel(s) : 6 channels
Channel positions : Front: L C R, Rear: L R, LFE
Sampling rate : 48.0 KHz
Resolution : 16 bits
Stream size : 377 MiB (17%)

English SRT : External

Language : English



 
http://www.imdb.com/title/tt1250777/

Release Date: 16 April 2010 (USA) 

Genre: Action | Crime | Thriller 

Plot: Dave Lizewski is an unnoticed high school student and comic book fan who one day decides to become a super-hero, even though he has no powers, training or meaningful reason to do so. 

Cast: 
Aaron Johnson ... Dave Lizewski / Kick-Ass
Garrett M. Brown ... Mr. Lizewski
Clark Duke ... Marty
Evan Peters ... Todd
Deborah Twiss ... Mrs. Zane
Lyndsy Fonseca ... Katie Deauxma
Sophie Wu ... Erika Cho
Elizabeth McGovern ... Mrs. Lizewski
Christopher Mintz-Plasse ... Chris D'Amico / Red Mist
Stu 'Large' Riley ... Huge Goon
Johnny Hopkins ... 1st Gang Kid
Ohene Cornelius ... 2nd Gang Kid
Mark Strong ... Frank D'Amico
Michael Rispoli ... Big Joe
Corey Johnson ... Sporty Goon
Kenneth Simmons ... Scary Goon
Anthony Desio ... Baby Goon
Carlos Besse Peres ... Buttons
Randall Batinkoff ... Tre Fernandez
Dexter Fletcher ... Cody
Chloe Moretz ... Mindy Macready / Hit-Girl (as Chloë Grace Moretz)
Nicolas Cage ... Damon Macready / Big Daddy
Russell Bentley ... Medic
Jason Flemyng ... Lobby Goon
Tamer Hassan ... Matthew
Yancy Butler ... Angie D'Amico
Adrian Martinez ... Ginger Goon
Tim Plester ... Danil
Joe Bacino ... Posh Goon
Hubert Boorder ... Oscar Juarez
Christopher McGuire ... Diner Fight Guy 1 (as Chris McGuire)
Max White ... Diner Fight Guy 2
Dean Copkov ... Diner Fight Guy 3
Jacob Cartwright ... Running Teenager
Maurice DuBois ... News Anchor
Dana Tyler ... News Anchor
Craig Ferguson ... Himself
Omar A. Soriano ... Leroy (as Omar Soriano)
Katrena Rochell ... Female Junkie
Kofi Natei ... Rasul
Xander Berkeley ... Detective Gigante
Omari Hardwick ... Sergeant Marcus Williams
Dan Duran ... Reporter
Louis Young ... Breaking News Reporter
Val Jobara ... Nervous Goon
Quinn Smith ... Big Mean Boy
Max Callum ... Police Officer (uncredited)
Annie Cooper ... Jess (uncredited)
Alexander Hathaway ... Comic Book Store Manager (uncredited)
Tangara Jones ... Gang Girl (uncredited)
Dexter Navy ... Comic Book Store Employee (uncredited)
Melissa Anne Smith ... Cheerleader (uncredited)



Screenshots

 
http://postimg.com/image/19000/18312.jpg
 
http://postimg.com/image/19000/18313.jpg